<svg width="8" height="8" viewBox="0 0 8 8" fill="none" xmlns="http://www.w3.org/2000/svg">
<g clip-path="url(#clip0_2_28)">
<path d="M7.17793 0.168125L7.00982 0L5.54592 1.46391L5.01172 1.45475L3.00781 3.45866L2.65873 3.10958L2.32251 3.44579L2.67159 3.79487L0.537365 5.92909C0.384225 6.08223 0.299896 6.28583 0.299896 6.5024C0.299896 6.71898 0.384225 6.92259 0.537365 7.07572L1.22419 7.76255C1.37732 7.91569 1.58093 8.00002 1.79751 8.00002C2.01407 8.00002 2.21768 7.91567 2.37081 7.76255L4.50503 5.62832L4.85411 5.9774L5.19033 5.64118L4.84125 5.2921L6.48757 3.64579C6.58239 3.55937 7.66985 2.54405 7.69947 1.42385C7.71205 0.949236 7.53657 0.526735 7.17793 0.168125ZM2.03457 7.42633C1.97124 7.48966 1.88704 7.52452 1.79751 7.52452C1.70796 7.52452 1.62374 7.48964 1.56043 7.42633L0.873601 6.73948C0.810272 6.67617 0.775413 6.59197 0.775413 6.5024C0.775413 6.41286 0.810288 6.32865 0.873601 6.26533L3.00781 4.13112L3.58831 4.7116L4.16879 5.29209L2.03457 7.42633ZM6.1646 3.29677L6.15992 3.30098L4.50501 4.95587L4.2475 4.69835L7.16733 1.7785C6.94824 2.58124 6.17345 3.28876 6.1646 3.29677ZM3.91128 4.36212L3.34403 3.79487L5.2053 1.93363L5.7395 1.94279L6.99729 0.684986C7.08905 0.810877 7.15252 0.943658 7.18864 1.08474L3.91128 4.36212Z" fill="black"/>
<path d="M2.48242 5.12138L2.14619 5.45761L2.84229 6.15371L3.17852 5.81748L2.48242 5.12138Z" fill="black"/>
<path d="M3.00181 4.60194L2.66559 4.93817L3.36169 5.63427L3.69791 5.29804L3.00181 4.60194Z" fill="black"/>
<path d="M1.96289 5.64092L1.62666 5.97714L2.32276 6.67324L2.65899 6.33701L1.96289 5.64092Z" fill="black"/>
<path d="M1.44348 6.16032L1.10725 6.49655L1.80335 7.19265L2.13958 6.85642L1.44348 6.16032Z" fill="black"/>
</g>
<defs>
<clipPath id="clip0_2_28">
<rect width="8" height="8" fill="white"/>
</clipPath>
</defs>
</svg>
