<svg width="8" height="8" viewBox="0 0 8 8" fill="none" xmlns="http://www.w3.org/2000/svg">
<g clip-path="url(#clip0_22_21)">
<path d="M4.09655 0.118875L4.00008 0L3.9036 0.118875C3.78967 0.259287 1.11713 3.56715 1.11713 5.11707C1.11713 6.70656 2.41044 8.00002 3.99994 8.00002C5.58943 8.00002 6.88289 6.70656 6.88289 5.11707C6.88303 3.56671 4.21021 0.259149 4.09655 0.118875ZM3.16124 6.84401L3.12378 6.82627C2.20102 6.387 1.89385 5.20001 2.18496 4.36682L2.19877 4.32796L2.4334 4.40965L2.41975 4.44895C2.16892 5.16539 2.44032 6.22562 3.23055 6.60236L3.26801 6.6201L3.16124 6.84401Z" fill="#FF4B3E"/>
</g>
<defs>
<clipPath id="clip0_22_21">
<rect width="8" height="8" fill="white"/>
</clipPath>
</defs>
</svg>
