<svg width="8" height="8" viewBox="0 0 8 8" fill="none" xmlns="http://www.w3.org/2000/svg">
<g clip-path="url(#clip0_21_2)">
<path d="M4 0C1.7944 0 0 1.7944 0 4C0 6.2056 1.7944 8 4 8C6.2056 8 8 6.2056 8 4C8 1.7944 6.2056 0 4 0ZM4.28458 1.06316C4.33094 1.01681 4.39494 0.99033 4.46031 0.99033C4.52541 0.99033 4.58944 1.01681 4.63577 1.06316C4.6821 1.10923 4.70858 1.17325 4.70858 1.2386C4.70858 1.30397 4.6821 1.368 4.63577 1.41433C4.58944 1.46039 4.52541 1.48687 4.46031 1.48687C4.39494 1.48687 4.33094 1.46039 4.28458 1.41433C4.23852 1.368 4.21204 1.30397 4.21204 1.2386C4.21204 1.17325 4.23852 1.10925 4.28458 1.06316ZM4.70861 3.0797C4.70861 3.14481 4.68213 3.20881 4.6358 3.25516C4.58947 3.30123 4.52544 3.3277 4.46034 3.3277C4.39496 3.3277 4.33096 3.30123 4.28461 3.25516C4.23855 3.20881 4.21207 3.14481 4.21207 3.0797C4.21207 3.01406 4.23855 2.95003 4.28461 2.90397C4.33096 2.85764 4.39496 2.83116 4.46034 2.83116C4.52544 2.83116 4.58947 2.85764 4.6358 2.90397C4.6821 2.95006 4.70861 3.01406 4.70861 3.0797ZM3.82446 1.98343C3.87052 1.93737 3.93455 1.9109 3.99992 1.9109C4.06529 1.9109 4.12929 1.93737 4.17565 1.98343C4.22171 2.02979 4.24819 2.09379 4.24819 2.15916C4.24819 2.22454 4.22171 2.28857 4.17565 2.33463C4.12929 2.38096 4.06529 2.40743 3.99992 2.40743C3.93455 2.40743 3.87079 2.38096 3.82446 2.33463C3.77813 2.28857 3.75165 2.22454 3.75165 2.15916C3.75165 2.09376 3.77813 2.02979 3.82446 1.98343ZM2.15623 1.99507C2.55634 1.60714 2.97877 1.46125 2.99658 1.45522C3.12646 1.41137 3.26737 1.48092 3.31135 1.61083C3.35521 1.74044 3.28593 1.88102 3.15655 1.92531C3.10009 1.94494 1.81131 2.41188 1.93789 3.98004C1.94893 4.11671 1.84708 4.23644 1.71038 4.24746C1.7036 4.248 1.69684 4.24827 1.69015 4.24827C1.56207 4.2483 1.45344 4.14987 1.44296 4.01996C1.36046 2.99798 1.78529 2.35475 2.15623 1.99507ZM3.32792 3.07943C3.32792 3.14481 3.30144 3.20881 3.25511 3.25516C3.20905 3.30123 3.14502 3.32797 3.07965 3.32797C3.01428 3.32797 2.95028 3.30123 2.90392 3.25516C2.85786 3.20881 2.83138 3.14481 2.83138 3.07943C2.83138 3.01433 2.85786 2.95033 2.90392 2.90397C2.95028 2.85791 3.01428 2.83143 3.07965 2.83143C3.14502 2.83143 3.20905 2.85791 3.25511 2.90397C3.30144 2.95036 3.32792 3.01433 3.32792 3.07943ZM1.8744 5.55615C1.82831 5.60248 1.76431 5.62896 1.69894 5.62896C1.63356 5.62896 1.56954 5.60248 1.52347 5.55615C1.47714 5.50979 1.45067 5.44606 1.45067 5.38069C1.45067 5.31531 1.47714 5.25129 1.52347 5.20496C1.56954 5.1589 1.63356 5.13242 1.69894 5.13242C1.76431 5.13242 1.82831 5.1589 1.8744 5.20496C1.92073 5.25129 1.94721 5.31531 1.94721 5.38069C1.94721 5.44606 1.92075 5.51009 1.8744 5.55615ZM2.61403 5.17215C2.56539 5.17215 2.51626 5.1579 2.47319 5.12816C2.36032 5.05026 2.33201 4.89562 2.40994 4.78279C2.99941 3.92908 3.70058 3.84673 4.26397 3.78058C4.71938 3.72711 4.98653 3.68299 5.18061 3.39825C5.71685 2.61147 5.18801 1.84083 5.1826 1.83313C5.10378 1.72092 5.13083 1.56609 5.24302 1.48725C5.35521 1.40846 5.51009 1.4355 5.5889 1.54766C5.61902 1.59055 6.31855 2.61034 5.5909 3.6779C5.25985 4.16358 4.78303 4.21961 4.32191 4.27375C3.78629 4.33662 3.2804 4.39604 2.81856 5.06489C2.7704 5.13468 2.69285 5.17215 2.61403 5.17215ZM6.01646 4.28466C6.06252 4.33075 6.089 4.39475 6.089 4.46012C6.089 4.52549 6.06252 4.58952 6.01646 4.63558C5.97013 4.68191 5.9061 4.70839 5.84073 4.70839C5.77535 4.70839 5.71135 4.68191 5.66529 4.63558C5.61894 4.58952 5.59246 4.52549 5.59246 4.46012C5.59246 4.39475 5.61894 4.33075 5.66529 4.28466C5.71135 4.23833 5.77535 4.21185 5.84073 4.21185C5.9061 4.21185 5.97013 4.23833 6.01646 4.28466ZM5.16875 5.38069C5.16875 5.44606 5.14228 5.51009 5.09592 5.55615C5.04986 5.60248 4.98583 5.62896 4.92048 5.62896C4.85511 5.62896 4.79108 5.60248 4.74475 5.55615C4.69869 5.51009 4.67222 5.44606 4.67222 5.38069C4.67222 5.31504 4.69869 5.25129 4.74475 5.20496C4.79108 5.1589 4.85511 5.13242 4.92048 5.13242C4.98583 5.13242 5.04986 5.1589 5.09592 5.20496C5.14228 5.25129 5.16875 5.31531 5.16875 5.38069ZM4.24819 4.92057C4.24819 4.98564 4.22171 5.04967 4.17565 5.096C4.12929 5.14206 4.06529 5.16854 3.99992 5.16854C3.93455 5.16854 3.87052 5.14206 3.82446 5.096C3.77813 5.04994 3.75165 4.98594 3.75165 4.92057C3.75165 4.85492 3.77813 4.79116 3.82446 4.74483C3.87052 4.69848 3.93455 4.672 3.99992 4.672C4.06529 4.672 4.12929 4.69848 4.17565 4.74483C4.22171 4.79116 4.24819 4.85516 4.24819 4.92057ZM6.16183 5.7923C5.44617 6.63364 4.63545 6.81605 4.06747 6.81605C4.05366 6.81605 4.04005 6.81595 4.02653 6.81576C3.41196 6.80628 2.96978 6.59108 2.95125 6.58193C2.82831 6.52116 2.77794 6.37226 2.83868 6.24932C2.89934 6.1266 3.04787 6.0762 3.17067 6.13646C3.23208 6.16625 4.63318 6.823 5.78362 5.47057C5.87246 5.36606 6.02917 5.35351 6.1336 5.44232C6.23801 5.53118 6.25067 5.68784 6.16183 5.7923ZM6.30117 3.32773C6.23553 3.32773 6.17177 3.30125 6.12544 3.25519C6.07938 3.20883 6.0529 3.1451 6.0529 3.07946C6.0529 3.01409 6.07938 2.95006 6.12544 2.904C6.17177 2.85794 6.2358 2.83119 6.30117 2.83119C6.36625 2.83119 6.43028 2.85794 6.47661 2.904C6.52296 2.95036 6.54944 3.01436 6.54944 3.07946C6.54944 3.14483 6.52296 3.20883 6.47661 3.25519C6.43052 3.30125 6.36625 3.32773 6.30117 3.32773ZM6.76129 4.24827C6.69592 4.24827 6.63192 4.22179 6.58556 4.17543C6.5395 4.12937 6.51302 4.06537 6.51302 4C6.51302 3.93463 6.5395 3.8706 6.58556 3.82454C6.63192 3.77821 6.69592 3.75173 6.76129 3.75173C6.82667 3.75173 6.89069 3.77821 6.93675 3.82454C6.98308 3.8706 7.00956 3.93463 7.00956 4C7.00956 4.06537 6.98308 4.12937 6.93675 4.17543C6.89067 4.22179 6.82667 4.24827 6.76129 4.24827Z" fill="#0C7A00"/>
</g>
<defs>
<clipPath id="clip0_21_2">
<rect width="8" height="8" fill="white"/>
</clipPath>
</defs>
</svg>
